<mxfile host="app.diagrams.net" agent="Mozilla/5.0 (Macintosh; Intel Mac OS X 10_15_7) AppleWebKit/537.36 (KHTML, like Gecko) Chrome/126.0.0.0 Safari/537.36" version="24.7.14">
  <diagram name="Page-1" id="t7QCLQ34AmDFl4Hu9N5t">
    <mxGraphModel dx="954" dy="727" grid="0" gridSize="10" guides="1" tooltips="1" connect="1" arrows="1" fold="1" page="1" pageScale="1" pageWidth="850" pageHeight="1100" math="0" shadow="0">
      <root>
        <mxCell id="0" />
        <mxCell id="1" parent="0" />
        <mxCell id="DcVrG1CXCxLwhQqXPiPs-3" style="edgeStyle=orthogonalEdgeStyle;rounded=0;orthogonalLoop=1;jettySize=auto;html=1;exitX=0;exitY=0;exitDx=0;exitDy=0;entryX=0.5;entryY=1;entryDx=0;entryDy=0;endArrow=none;endFill=0;curved=1;" edge="1" parent="1" source="DcVrG1CXCxLwhQqXPiPs-1" target="DcVrG1CXCxLwhQqXPiPs-2">
          <mxGeometry relative="1" as="geometry" />
        </mxCell>
        <mxCell id="DcVrG1CXCxLwhQqXPiPs-6" style="edgeStyle=orthogonalEdgeStyle;rounded=0;orthogonalLoop=1;jettySize=auto;html=1;exitX=0.5;exitY=0;exitDx=0;exitDy=0;entryX=0.5;entryY=1;entryDx=0;entryDy=0;endArrow=none;endFill=0;curved=1;" edge="1" parent="1" source="DcVrG1CXCxLwhQqXPiPs-1" target="DcVrG1CXCxLwhQqXPiPs-5">
          <mxGeometry relative="1" as="geometry" />
        </mxCell>
        <mxCell id="DcVrG1CXCxLwhQqXPiPs-12" style="edgeStyle=orthogonalEdgeStyle;rounded=0;orthogonalLoop=1;jettySize=auto;html=1;exitX=1;exitY=0;exitDx=0;exitDy=0;entryX=0.5;entryY=1;entryDx=0;entryDy=0;curved=1;endArrow=none;endFill=0;" edge="1" parent="1" source="DcVrG1CXCxLwhQqXPiPs-1" target="DcVrG1CXCxLwhQqXPiPs-11">
          <mxGeometry relative="1" as="geometry" />
        </mxCell>
        <mxCell id="DcVrG1CXCxLwhQqXPiPs-31" style="edgeStyle=orthogonalEdgeStyle;rounded=0;orthogonalLoop=1;jettySize=auto;html=1;exitX=1;exitY=1;exitDx=0;exitDy=0;entryX=0;entryY=0.5;entryDx=0;entryDy=0;endArrow=none;endFill=0;" edge="1" parent="1" source="DcVrG1CXCxLwhQqXPiPs-1" target="DcVrG1CXCxLwhQqXPiPs-28">
          <mxGeometry relative="1" as="geometry" />
        </mxCell>
        <mxCell id="DcVrG1CXCxLwhQqXPiPs-1" value="Romvesen" style="whiteSpace=wrap;html=1;align=center;" vertex="1" parent="1">
          <mxGeometry x="96" y="253" width="100" height="40" as="geometry" />
        </mxCell>
        <mxCell id="DcVrG1CXCxLwhQqXPiPs-2" value="Navn" style="ellipse;whiteSpace=wrap;html=1;align=center;fontStyle=4;" vertex="1" parent="1">
          <mxGeometry x="9" y="172" width="100" height="40" as="geometry" />
        </mxCell>
        <mxCell id="DcVrG1CXCxLwhQqXPiPs-8" style="edgeStyle=orthogonalEdgeStyle;rounded=0;orthogonalLoop=1;jettySize=auto;html=1;exitX=0;exitY=0;exitDx=0;exitDy=0;entryX=0.5;entryY=1;entryDx=0;entryDy=0;endArrow=none;endFill=0;curved=1;" edge="1" parent="1" source="DcVrG1CXCxLwhQqXPiPs-5" target="DcVrG1CXCxLwhQqXPiPs-7">
          <mxGeometry relative="1" as="geometry" />
        </mxCell>
        <mxCell id="DcVrG1CXCxLwhQqXPiPs-10" style="edgeStyle=orthogonalEdgeStyle;rounded=0;orthogonalLoop=1;jettySize=auto;html=1;exitX=1;exitY=0;exitDx=0;exitDy=0;curved=1;endArrow=none;endFill=0;" edge="1" parent="1" source="DcVrG1CXCxLwhQqXPiPs-5" target="DcVrG1CXCxLwhQqXPiPs-9">
          <mxGeometry relative="1" as="geometry" />
        </mxCell>
        <mxCell id="DcVrG1CXCxLwhQqXPiPs-5" value="Lyd" style="ellipse;whiteSpace=wrap;html=1;align=center;fontStyle=4;" vertex="1" parent="1">
          <mxGeometry x="123" y="172" width="100" height="40" as="geometry" />
        </mxCell>
        <mxCell id="DcVrG1CXCxLwhQqXPiPs-7" value="Starttone" style="ellipse;whiteSpace=wrap;html=1;align=center;" vertex="1" parent="1">
          <mxGeometry x="67" y="100" width="100" height="40" as="geometry" />
        </mxCell>
        <mxCell id="DcVrG1CXCxLwhQqXPiPs-9" value="Gurglelyd" style="ellipse;whiteSpace=wrap;html=1;align=center;" vertex="1" parent="1">
          <mxGeometry x="186" y="100" width="100" height="40" as="geometry" />
        </mxCell>
        <mxCell id="DcVrG1CXCxLwhQqXPiPs-11" value="Tekstlig beskrivelse" style="ellipse;whiteSpace=wrap;html=1;align=center;" vertex="1" parent="1">
          <mxGeometry x="236" y="172" width="100" height="40" as="geometry" />
        </mxCell>
        <mxCell id="DcVrG1CXCxLwhQqXPiPs-25" style="edgeStyle=orthogonalEdgeStyle;rounded=0;orthogonalLoop=1;jettySize=auto;html=1;exitX=0;exitY=0;exitDx=0;exitDy=0;entryX=0.5;entryY=1;entryDx=0;entryDy=0;curved=1;endArrow=none;endFill=0;" edge="1" parent="1" source="DcVrG1CXCxLwhQqXPiPs-13" target="DcVrG1CXCxLwhQqXPiPs-24">
          <mxGeometry relative="1" as="geometry" />
        </mxCell>
        <mxCell id="DcVrG1CXCxLwhQqXPiPs-27" style="edgeStyle=orthogonalEdgeStyle;rounded=0;orthogonalLoop=1;jettySize=auto;html=1;exitX=1;exitY=0;exitDx=0;exitDy=0;entryX=0.5;entryY=1;entryDx=0;entryDy=0;endArrow=none;endFill=0;curved=1;" edge="1" parent="1" source="DcVrG1CXCxLwhQqXPiPs-13" target="DcVrG1CXCxLwhQqXPiPs-26">
          <mxGeometry relative="1" as="geometry" />
        </mxCell>
        <mxCell id="DcVrG1CXCxLwhQqXPiPs-30" style="edgeStyle=orthogonalEdgeStyle;rounded=0;orthogonalLoop=1;jettySize=auto;html=1;exitX=0;exitY=1;exitDx=0;exitDy=0;entryX=1;entryY=0.5;entryDx=0;entryDy=0;shape=link;" edge="1" parent="1" source="DcVrG1CXCxLwhQqXPiPs-13" target="DcVrG1CXCxLwhQqXPiPs-28">
          <mxGeometry relative="1" as="geometry" />
        </mxCell>
        <mxCell id="DcVrG1CXCxLwhQqXPiPs-47" style="edgeStyle=orthogonalEdgeStyle;rounded=0;orthogonalLoop=1;jettySize=auto;html=1;exitX=0.5;exitY=1;exitDx=0;exitDy=0;entryX=0.5;entryY=0;entryDx=0;entryDy=0;endArrow=none;endFill=0;shape=link;" edge="1" parent="1" source="DcVrG1CXCxLwhQqXPiPs-13" target="DcVrG1CXCxLwhQqXPiPs-43">
          <mxGeometry relative="1" as="geometry" />
        </mxCell>
        <mxCell id="DcVrG1CXCxLwhQqXPiPs-13" value="Gruppe" style="whiteSpace=wrap;html=1;align=center;" vertex="1" parent="1">
          <mxGeometry x="509" y="253" width="100" height="40" as="geometry" />
        </mxCell>
        <mxCell id="DcVrG1CXCxLwhQqXPiPs-14" value="Organisert" style="shape=rhombus;perimeter=rhombusPerimeter;whiteSpace=wrap;html=1;align=center;" vertex="1" parent="1">
          <mxGeometry x="286" y="243" width="120" height="60" as="geometry" />
        </mxCell>
        <mxCell id="DcVrG1CXCxLwhQqXPiPs-17" value="" style="shape=link;html=1;rounded=0;entryX=0;entryY=0.5;entryDx=0;entryDy=0;" edge="1" parent="1" target="DcVrG1CXCxLwhQqXPiPs-14">
          <mxGeometry width="100" relative="1" as="geometry">
            <mxPoint x="196" y="272.5" as="sourcePoint" />
            <mxPoint x="271" y="273" as="targetPoint" />
          </mxGeometry>
        </mxCell>
        <mxCell id="DcVrG1CXCxLwhQqXPiPs-20" value="" style="shape=link;html=1;rounded=0;entryX=0;entryY=0.5;entryDx=0;entryDy=0;" edge="1" parent="1" target="DcVrG1CXCxLwhQqXPiPs-13">
          <mxGeometry width="100" relative="1" as="geometry">
            <mxPoint x="404" y="272.5" as="sourcePoint" />
            <mxPoint x="481" y="273" as="targetPoint" />
          </mxGeometry>
        </mxCell>
        <mxCell id="DcVrG1CXCxLwhQqXPiPs-21" value="1" style="text;strokeColor=none;fillColor=none;spacingLeft=4;spacingRight=4;overflow=hidden;rotatable=0;points=[[0,0.5],[1,0.5]];portConstraint=eastwest;fontSize=12;whiteSpace=wrap;html=1;" vertex="1" parent="1">
          <mxGeometry x="401" y="243" width="40" height="30" as="geometry" />
        </mxCell>
        <mxCell id="DcVrG1CXCxLwhQqXPiPs-22" value="N" style="text;strokeColor=none;fillColor=none;spacingLeft=4;spacingRight=4;overflow=hidden;rotatable=0;points=[[0,0.5],[1,0.5]];portConstraint=eastwest;fontSize=12;whiteSpace=wrap;html=1;" vertex="1" parent="1">
          <mxGeometry x="275" y="243" width="40" height="30" as="geometry" />
        </mxCell>
        <mxCell id="DcVrG1CXCxLwhQqXPiPs-24" value="ID" style="ellipse;whiteSpace=wrap;html=1;align=center;fontStyle=4;" vertex="1" parent="1">
          <mxGeometry x="428" y="172" width="100" height="40" as="geometry" />
        </mxCell>
        <mxCell id="DcVrG1CXCxLwhQqXPiPs-26" value="Symbol" style="ellipse;whiteSpace=wrap;html=1;align=center;" vertex="1" parent="1">
          <mxGeometry x="605" y="170" width="100" height="40" as="geometry" />
        </mxCell>
        <mxCell id="DcVrG1CXCxLwhQqXPiPs-28" value="Leder" style="shape=rhombus;perimeter=rhombusPerimeter;whiteSpace=wrap;html=1;align=center;" vertex="1" parent="1">
          <mxGeometry x="286" y="325" width="120" height="60" as="geometry" />
        </mxCell>
        <mxCell id="DcVrG1CXCxLwhQqXPiPs-32" value="1" style="text;strokeColor=none;fillColor=none;spacingLeft=4;spacingRight=4;overflow=hidden;rotatable=0;points=[[0,0.5],[1,0.5]];portConstraint=eastwest;fontSize=12;whiteSpace=wrap;html=1;" vertex="1" parent="1">
          <mxGeometry x="404" y="325" width="40" height="30" as="geometry" />
        </mxCell>
        <mxCell id="DcVrG1CXCxLwhQqXPiPs-33" value="1" style="text;strokeColor=none;fillColor=none;spacingLeft=4;spacingRight=4;overflow=hidden;rotatable=0;points=[[0,0.5],[1,0.5]];portConstraint=eastwest;fontSize=12;whiteSpace=wrap;html=1;" vertex="1" parent="1">
          <mxGeometry x="278" y="325" width="40" height="30" as="geometry" />
        </mxCell>
        <mxCell id="DcVrG1CXCxLwhQqXPiPs-37" style="edgeStyle=orthogonalEdgeStyle;rounded=0;orthogonalLoop=1;jettySize=auto;html=1;exitX=0;exitY=1;exitDx=0;exitDy=0;entryX=0.5;entryY=0;entryDx=0;entryDy=0;endArrow=none;endFill=0;curved=1;" edge="1" parent="1" source="DcVrG1CXCxLwhQqXPiPs-35" target="DcVrG1CXCxLwhQqXPiPs-36">
          <mxGeometry relative="1" as="geometry" />
        </mxCell>
        <mxCell id="DcVrG1CXCxLwhQqXPiPs-39" style="edgeStyle=orthogonalEdgeStyle;rounded=0;orthogonalLoop=1;jettySize=auto;html=1;exitX=1;exitY=1;exitDx=0;exitDy=0;endArrow=none;endFill=0;curved=1;" edge="1" parent="1" source="DcVrG1CXCxLwhQqXPiPs-35" target="DcVrG1CXCxLwhQqXPiPs-38">
          <mxGeometry relative="1" as="geometry" />
        </mxCell>
        <mxCell id="DcVrG1CXCxLwhQqXPiPs-46" style="edgeStyle=orthogonalEdgeStyle;rounded=0;orthogonalLoop=1;jettySize=auto;html=1;exitX=0.5;exitY=0;exitDx=0;exitDy=0;entryX=1;entryY=0.5;entryDx=0;entryDy=0;endArrow=none;endFill=0;" edge="1" parent="1" source="DcVrG1CXCxLwhQqXPiPs-35" target="DcVrG1CXCxLwhQqXPiPs-43">
          <mxGeometry relative="1" as="geometry" />
        </mxCell>
        <mxCell id="DcVrG1CXCxLwhQqXPiPs-35" value="Romskip" style="whiteSpace=wrap;html=1;align=center;" vertex="1" parent="1">
          <mxGeometry x="624" y="473" width="100" height="40" as="geometry" />
        </mxCell>
        <mxCell id="DcVrG1CXCxLwhQqXPiPs-36" value="Serienummer" style="ellipse;whiteSpace=wrap;html=1;align=center;fontStyle=4;" vertex="1" parent="1">
          <mxGeometry x="545" y="554" width="100" height="40" as="geometry" />
        </mxCell>
        <mxCell id="DcVrG1CXCxLwhQqXPiPs-38" value="Kapasitet" style="ellipse;whiteSpace=wrap;html=1;align=center;" vertex="1" parent="1">
          <mxGeometry x="703" y="554" width="100" height="40" as="geometry" />
        </mxCell>
        <mxCell id="DcVrG1CXCxLwhQqXPiPs-42" style="edgeStyle=orthogonalEdgeStyle;rounded=0;orthogonalLoop=1;jettySize=auto;html=1;exitX=0;exitY=1;exitDx=0;exitDy=0;entryX=0.5;entryY=0;entryDx=0;entryDy=0;endArrow=none;endFill=0;curved=1;" edge="1" parent="1" source="DcVrG1CXCxLwhQqXPiPs-40" target="DcVrG1CXCxLwhQqXPiPs-41">
          <mxGeometry relative="1" as="geometry" />
        </mxCell>
        <mxCell id="DcVrG1CXCxLwhQqXPiPs-45" style="edgeStyle=orthogonalEdgeStyle;rounded=0;orthogonalLoop=1;jettySize=auto;html=1;exitX=1;exitY=0;exitDx=0;exitDy=0;entryX=0;entryY=0.5;entryDx=0;entryDy=0;endArrow=none;endFill=0;" edge="1" parent="1" source="DcVrG1CXCxLwhQqXPiPs-40" target="DcVrG1CXCxLwhQqXPiPs-43">
          <mxGeometry relative="1" as="geometry" />
        </mxCell>
        <mxCell id="DcVrG1CXCxLwhQqXPiPs-40" value="Funksjon" style="whiteSpace=wrap;html=1;align=center;" vertex="1" parent="1">
          <mxGeometry x="378" y="473" width="100" height="40" as="geometry" />
        </mxCell>
        <mxCell id="DcVrG1CXCxLwhQqXPiPs-41" value="Navn" style="ellipse;whiteSpace=wrap;html=1;align=center;fontStyle=4;" vertex="1" parent="1">
          <mxGeometry x="278" y="554" width="100" height="40" as="geometry" />
        </mxCell>
        <mxCell id="DcVrG1CXCxLwhQqXPiPs-43" value="Utføre" style="shape=rhombus;perimeter=rhombusPerimeter;whiteSpace=wrap;html=1;align=center;" vertex="1" parent="1">
          <mxGeometry x="499" y="365" width="120" height="60" as="geometry" />
        </mxCell>
        <mxCell id="DcVrG1CXCxLwhQqXPiPs-48" value="1" style="text;strokeColor=none;fillColor=none;spacingLeft=4;spacingRight=4;overflow=hidden;rotatable=0;points=[[0,0.5],[1,0.5]];portConstraint=eastwest;fontSize=12;whiteSpace=wrap;html=1;" vertex="1" parent="1">
          <mxGeometry x="614" y="369" width="40" height="30" as="geometry" />
        </mxCell>
        <mxCell id="DcVrG1CXCxLwhQqXPiPs-49" value="M" style="text;strokeColor=none;fillColor=none;spacingLeft=4;spacingRight=4;overflow=hidden;rotatable=0;points=[[0,0.5],[1,0.5]];portConstraint=eastwest;fontSize=12;whiteSpace=wrap;html=1;" vertex="1" parent="1">
          <mxGeometry x="478" y="373" width="40" height="30" as="geometry" />
        </mxCell>
        <mxCell id="DcVrG1CXCxLwhQqXPiPs-50" value="K" style="text;strokeColor=none;fillColor=none;spacingLeft=4;spacingRight=4;overflow=hidden;rotatable=0;points=[[0,0.5],[1,0.5]];portConstraint=eastwest;fontSize=12;whiteSpace=wrap;html=1;" vertex="1" parent="1">
          <mxGeometry x="560" y="339" width="40" height="30" as="geometry" />
        </mxCell>
      </root>
    </mxGraphModel>
  </diagram>
</mxfile>
